<svg width="115" height="25" viewBox="0 0 115 25" fill="none" xmlns="http://www.w3.org/2000/svg">
<g clip-path="url(#clip0_4631_38787)">
<path d="M6.46466 11.3187C6.38224 11.436 6.33812 11.5759 6.33835 11.7193C6.33883 11.9061 6.41337 12.0851 6.54563 12.217C6.67789 12.3489 6.85706 12.423 7.04387 12.423H9.45451C9.52479 12.4245 9.59437 12.4088 9.65725 12.3774C9.72012 12.3459 9.7744 12.2997 9.81539 12.2426L17.3108 1.52818C17.3925 1.41068 17.436 1.27077 17.4353 1.12761C17.4348 0.941123 17.3605 0.762409 17.2286 0.630542C17.0968 0.498674 16.918 0.424381 16.7316 0.423905H14.3191C14.2489 0.422739 14.1794 0.438532 14.1166 0.469944C14.0538 0.501356 13.9994 0.547459 13.9582 0.604342L6.46466 11.3169V11.3187ZM11.3202 1.52818C11.4027 1.41089 11.4468 1.27097 11.4465 1.12761C11.4461 0.940811 11.3715 0.761825 11.2393 0.629906C11.107 0.497987 10.9278 0.423904 10.741 0.423905H8.33039C8.26013 0.422586 8.1906 0.438313 8.12775 0.469737C8.06491 0.501161 8.01061 0.547348 7.96951 0.604342L0.474133 11.3169C0.391992 11.4349 0.348491 11.5755 0.349631 11.7193C0.350108 11.9058 0.424401 12.0845 0.556268 12.2164C0.688136 12.3482 0.86685 12.4225 1.05334 12.423H3.46579C3.53604 12.4243 3.60557 12.4086 3.66842 12.3772C3.73127 12.3457 3.78557 12.2996 3.82666 12.2426L11.322 1.52818H11.3202ZM20.8834 13.5291C20.9566 13.4235 20.9994 13.2998 21.0072 13.1716C21.0151 13.0434 20.9877 12.9154 20.928 12.8016C20.8684 12.6879 20.7787 12.5926 20.6687 12.5262C20.5588 12.4598 20.4327 12.4247 20.3042 12.4248H17.8972C17.8269 12.4233 17.7573 12.439 17.6945 12.4704C17.6316 12.5019 17.5773 12.5481 17.5363 12.6052L10.0427 23.3178C9.97026 23.4236 9.92799 23.5471 9.92045 23.6751C9.91291 23.8031 9.9404 23.9308 9.99996 24.0443C10.0595 24.1579 10.1489 24.253 10.2585 24.3196C10.3681 24.3862 10.4937 24.4216 10.6219 24.4221H13.0344C13.1046 24.4231 13.174 24.4073 13.2368 24.3759C13.2996 24.3445 13.354 24.2984 13.3953 24.2417L20.8906 13.5363L20.8834 13.5291ZM26.2966 12.4248H23.8895C23.8192 12.4233 23.7497 12.439 23.6868 12.4704C23.6239 12.5019 23.5696 12.5481 23.5286 12.6052L16.0351 23.3178C15.9626 23.4236 15.9203 23.5471 15.9128 23.6751C15.9052 23.8031 15.9327 23.9308 15.9923 24.0443C16.0518 24.1579 16.1412 24.253 16.2508 24.3196C16.3604 24.3862 16.4861 24.4216 16.6143 24.4221H19.0267C19.0969 24.4231 19.1664 24.4073 19.2292 24.3759C19.292 24.3445 19.3463 24.2984 19.3876 24.2417L26.874 13.5291C26.9471 13.4235 26.9899 13.2998 26.9978 13.1716C27.0056 13.0434 26.9782 12.9154 26.9186 12.8016C26.8589 12.6879 26.7692 12.5926 26.6592 12.5262C26.5493 12.4598 26.4232 12.4247 26.2948 12.4248H26.2966ZM23.3031 1.52818C23.3762 1.42255 23.419 1.29892 23.4269 1.17069C23.4348 1.04246 23.4074 0.914517 23.3477 0.800744C23.288 0.68697 23.1984 0.591705 23.0884 0.525276C22.9784 0.458846 22.8524 0.423789 22.7239 0.423905H20.3114C20.2412 0.422739 20.1717 0.438532 20.1089 0.469944C20.0461 0.501356 19.9918 0.547459 19.9506 0.604342L4.05221 23.3178C3.97867 23.4233 3.93545 23.547 3.92725 23.6753C3.91905 23.8037 3.94619 23.9318 4.00571 24.0458C4.06522 24.1599 4.15485 24.2554 4.26484 24.322C4.37484 24.3887 4.501 24.4239 4.62961 24.4239H7.04387C7.11414 24.4254 7.18373 24.4097 7.2466 24.3783C7.30947 24.3468 7.36375 24.3006 7.40474 24.2435L23.3031 1.52818Z" fill="url(#paint0_linear_4631_38787)"/>
<path d="M50.4691 7.73144V4.73438H40.767L38.0352 7.78738H46.1368L37.9883 17.0601V20.1131L47.7662 20.0842L50.4728 17.0312L42.2105 17.051L50.4655 7.82166C50.4646 7.81267 50.4646 7.80359 50.4655 7.7946V7.76573C50.4691 7.74407 50.4691 7.73325 50.4691 7.73144Z" fill="#FDFDFD"/>
<path d="M67.9885 7.81646V4.74902H59.0479L57.2236 6.57325V7.81646V10.8695V18.3125L59.01 20.0988H67.9885V17.0458H60.2911V15.689H58.6671V15.292H60.2911V13.9369H67.9885V10.8695H60.2911V7.81646H67.9885Z" fill="#FDFDFD"/>
<path d="M82.2466 20.0916H74.8486V8.26756L77.9161 4.74902V17.0458H84.9964L82.2466 20.0916Z" fill="#FDFDFD"/>
<path d="M90.3035 20.0911V7.8015H85.7168V4.75391H97.9865V7.8015H93.3998V16.7133L90.3035 20.0911Z" fill="#FDFDFD"/>
<path d="M114.973 20.0988L107.321 4.74902L105.762 7.85435L99.623 20.0988H102.97L107.342 11.1564L111.626 20.0988H114.973Z" fill="#FDFDFD"/>
</g>
<defs>
<linearGradient id="paint0_linear_4631_38787" x1="0.349609" y1="12.4239" x2="26.9991" y2="12.4239" gradientUnits="userSpaceOnUse">
<stop stop-color="#FC8F70"/>
<stop offset="1" stop-color="#FD5868"/>
</linearGradient>
<clipPath id="clip0_4631_38787">
<rect width="114.623" height="24" fill="white" transform="translate(0.349609 0.423828)"/>
</clipPath>
</defs>
</svg>
